<svg xmlns="http://www.w3.org/2000/svg" width="555.766" height="535.175" viewBox="0 0 555.766 535.175">
  <g id="Fix_Logo" data-name="Fix Logo" transform="translate(-698.917 -221.663)">
    <path id="Path_1" data-name="Path 1" d="M978.824,534.306l68.7-65.13,195.9,197.091s28.059,35.711-4.421,68.7-65.641,16.665-78.9,4.081S978.824,534.306,978.824,534.306Z" fill="#cdf0ea"/>
    <path id="Path_2" data-name="Path 2" d="M932.777,482.938,998.2,420.418,933.358,354.8s-5.42-5.42-3.484-15.485,5.613-27.292,0-46.068-16.259-42.777-41.035-58.262-62.908-13.937-65.811-12.388,47.423,53.23,47.423,53.23,7.549,4.646,4.839,16.259S862.9,336.024,862.9,336.024s-2.129,5.613-13.937,8.517-34.841,8.517-34.841,8.517-8.9,4.258-22.066-8.517-45.487-47.616-45.487-47.616-9.1,7.355-2.516,42.971,44.906,58.456,48,60.972,32.518,16.259,60.585,9.485c14.517-1.161,19.55,4.646,19.55,4.646Z" fill="#cdf0ea"/>
    <path id="Path_3" data-name="Path 3" d="M1213.635,293.634l-30.2-31.744L1130.4,293.634l-9.1,26.518L901.419,529.973l-14.711-15.679s-5.226-5.42-12.775,0-20.13,13.356-20.13,13.356-15.291,31.744-40.455,37.164c-17.033,17.227-111.492,107.04-111.492,107.04s-5.226,2.9-1.742,13.549,14.9,48.584,67.747,70.07c6.581.968,8.517,3.1,13.162-1.355s109.943-105.3,109.943-105.3,16.066-30.97,40.455-38.132c.387-.194,16.453-21.292,16.453-21.292a13.057,13.057,0,0,0,0-10.452C944,573.912,931.422,562.3,931.422,562.3l219.5-209.047,27.292-8.13Z" fill="#cdf0ea"/>
  </g>
</svg>
